G04 #@! TF.GenerationSoftware,KiCad,Pcbnew,5.1.0-rc2-unknown-036be7d~80~ubuntu16.04.1*
G04 #@! TF.CreationDate,2020-07-14T15:33:40+03:00*
G04 #@! TF.ProjectId,ESP32-S2-DevKit-Lipo_Rev_B,45535033-322d-4533-922d-4465764b6974,B*
G04 #@! TF.SameCoordinates,Original*
G04 #@! TF.FileFunction,Paste,Top*
G04 #@! TF.FilePolarity,Positive*
%FSLAX46Y46*%
G04 Gerber Fmt 4.6, Leading zero omitted, Abs format (unit mm)*
G04 Created by KiCad (PCBNEW 5.1.0-rc2-unknown-036be7d~80~ubuntu16.04.1) date 2020-07-14 15:33:40*
%MOMM*%
%LPD*%
G04 APERTURE LIST*
%ADD10R,1.000000X1.400000*%
%ADD11R,0.550000X0.500000*%
%ADD12R,1.000000X1.800000*%
%ADD13R,0.500000X0.550000*%
%ADD14R,1.400000X1.000000*%
%ADD15R,2.200000X2.800000*%
%ADD16R,0.900000X2.100000*%
%ADD17R,1.000000X2.100000*%
%ADD18R,1.524000X1.270000*%
%ADD19R,0.800000X0.800000*%
%ADD20R,1.200000X1.400000*%
%ADD21R,1.200000X0.550000*%
%ADD22R,1.270000X0.325000*%
%ADD23R,0.500000X1.650000*%
%ADD24R,0.396120X1.721120*%
%ADD25R,1.354000X1.254000*%
%ADD26R,1.754000X1.327000*%
%ADD27R,1.016000X1.016000*%
%ADD28R,1.700000X1.200000*%
%ADD29R,1.700000X1.100000*%
%ADD30R,1.398000X1.398000*%
%ADD31R,1.100000X1.700000*%
%ADD32R,1.098000X1.098000*%
%ADD33R,1.270000X1.524000*%
%ADD34R,0.550000X1.200000*%
G04 APERTURE END LIST*
D10*
X137028000Y-100457000D03*
X133228000Y-100457000D03*
D11*
X142494000Y-99314000D03*
X142494000Y-100330000D03*
D12*
X139172000Y-93853000D03*
X136672000Y-93853000D03*
D13*
X136144000Y-95631000D03*
X137160000Y-95631000D03*
X139065000Y-95631000D03*
X138049000Y-95631000D03*
D14*
X138973560Y-97221040D03*
X138973560Y-99123500D03*
X141183360Y-98168460D03*
D15*
X152146000Y-102977000D03*
D16*
X150646000Y-100127000D03*
D17*
X152146000Y-100127000D03*
D16*
X153646000Y-100127000D03*
D18*
X133858000Y-111633000D03*
X133858000Y-109601000D03*
D19*
X150876000Y-110236000D03*
X152400000Y-110236000D03*
D20*
X136944000Y-105580000D03*
X135344000Y-107780000D03*
X136944000Y-107780000D03*
X135344000Y-105580000D03*
D14*
X152046940Y-109026960D03*
X152046940Y-107124500D03*
X149837140Y-108079540D03*
X134914640Y-97792540D03*
X137124440Y-96837500D03*
X137124440Y-98739960D03*
D21*
X148687000Y-111826000D03*
X148687000Y-112776000D03*
X148687000Y-113726000D03*
X151287000Y-111826000D03*
X151287000Y-113726000D03*
D22*
X147510500Y-102104000D03*
X147510500Y-102754000D03*
X147510500Y-103404000D03*
X147510500Y-104054000D03*
X147510500Y-104704000D03*
X147510500Y-105354000D03*
X147510500Y-106004000D03*
X147510500Y-106654000D03*
X147510500Y-107304000D03*
X147510500Y-107954000D03*
X140271500Y-107954000D03*
X140271500Y-107304000D03*
X140271500Y-106654000D03*
X140271500Y-106004000D03*
X140271500Y-105354000D03*
X140271500Y-104704000D03*
X140271500Y-104054000D03*
X140271500Y-103404000D03*
X140271500Y-102754000D03*
X140271500Y-102104000D03*
D23*
X142122500Y-112547000D03*
D24*
X142860000Y-112547000D03*
X143510000Y-112547000D03*
X144160000Y-112547000D03*
D23*
X144897500Y-112547000D03*
D25*
X142010000Y-117097000D03*
X145010000Y-117097000D03*
D26*
X133858000Y-96370000D03*
X133858000Y-91590000D03*
D14*
X137160000Y-113670000D03*
X137160000Y-117470000D03*
X153860500Y-109024500D03*
X153860500Y-105224500D03*
D10*
X138044000Y-102743000D03*
X134244000Y-102743000D03*
D27*
X154495500Y-113347500D03*
X152717500Y-113347500D03*
D13*
X154559000Y-110236000D03*
X153543000Y-110236000D03*
D11*
X145669000Y-110490000D03*
X145669000Y-109474000D03*
X142748000Y-109474000D03*
X142748000Y-110490000D03*
X143637000Y-109474000D03*
X143637000Y-110490000D03*
D13*
X148590000Y-110109000D03*
X149606000Y-110109000D03*
X154559000Y-111379000D03*
X153543000Y-111379000D03*
X139446000Y-109220000D03*
X140462000Y-109220000D03*
X140462000Y-110109000D03*
X139446000Y-110109000D03*
X136271000Y-104140000D03*
X135255000Y-104140000D03*
X138557000Y-100584000D03*
X139573000Y-100584000D03*
D11*
X132842000Y-113029999D03*
X132842000Y-114045999D03*
X132461000Y-84582000D03*
X132461000Y-85598000D03*
X132461000Y-81533999D03*
X132461000Y-82549999D03*
X132842000Y-116077999D03*
X132842000Y-115061999D03*
X133350000Y-80518000D03*
X133350000Y-79502000D03*
X141859000Y-110490000D03*
X141859000Y-109474000D03*
X138303000Y-105156000D03*
X138303000Y-106172000D03*
D13*
X140462000Y-110998000D03*
X139446000Y-110998000D03*
D26*
X153035000Y-91590000D03*
X153035000Y-96370000D03*
D27*
X151638000Y-105410000D03*
X149860000Y-105410000D03*
D11*
X133350000Y-82549999D03*
X133350000Y-81533999D03*
X143383000Y-100584000D03*
X143383000Y-99568000D03*
X146050000Y-100584000D03*
X146050000Y-99568000D03*
D13*
X140462000Y-100330000D03*
X141478000Y-100330000D03*
D11*
X132461000Y-79502000D03*
X132461000Y-80518000D03*
X144272000Y-99568000D03*
X144272000Y-100584000D03*
X145161000Y-99568000D03*
X145161000Y-100584000D03*
X144526000Y-109474000D03*
X144526000Y-110490000D03*
X154178000Y-70485000D03*
X154178000Y-71501000D03*
D13*
X138049000Y-92202000D03*
X139065000Y-92202000D03*
X142621000Y-92583000D03*
X143637000Y-92583000D03*
D28*
X143346000Y-94539000D03*
X143346000Y-96139000D03*
X143346000Y-97739000D03*
X148246000Y-97739000D03*
X148246000Y-96139000D03*
X148246000Y-94539000D03*
D29*
X134760000Y-67184000D03*
D30*
X142320000Y-75234000D03*
D29*
X134760000Y-68684000D03*
X134760000Y-70184000D03*
X134760000Y-71684000D03*
X134760000Y-73184000D03*
X134760000Y-74684000D03*
X134760000Y-76184000D03*
X134760000Y-77684000D03*
X134760000Y-79184000D03*
X134760000Y-80684000D03*
X134760000Y-82184000D03*
X134760000Y-83684000D03*
X134760000Y-85184000D03*
X134760000Y-86684000D03*
X134760000Y-88184000D03*
X134760000Y-89684000D03*
D31*
X136760000Y-90434000D03*
X138260000Y-90434000D03*
X139760000Y-90434000D03*
X141260000Y-90434000D03*
X142760000Y-90434000D03*
X144260000Y-90434000D03*
X145760000Y-90434000D03*
X147260000Y-90434000D03*
X148760000Y-90434000D03*
X150260000Y-90434000D03*
D29*
X152260000Y-89684000D03*
X152260000Y-88184000D03*
X152260000Y-86684000D03*
X152260000Y-85184000D03*
X152260000Y-83684000D03*
X152260000Y-82184000D03*
X152260000Y-80684000D03*
X152260000Y-79184000D03*
X152260000Y-77684000D03*
X152260000Y-76184000D03*
X152260000Y-74684000D03*
X152260000Y-73184000D03*
X152260000Y-71684000D03*
X152260000Y-70184000D03*
X152260000Y-68684000D03*
X152260000Y-67184000D03*
D32*
X140820000Y-73734000D03*
X142320000Y-73734000D03*
X143820000Y-73734000D03*
X140820000Y-75234000D03*
X143820000Y-75234000D03*
X140820000Y-76734000D03*
X142320000Y-76734000D03*
X143820000Y-76734000D03*
D11*
X153670000Y-97536000D03*
X153670000Y-98552000D03*
X146685000Y-110490000D03*
X146685000Y-109474000D03*
X138303000Y-108204000D03*
X138303000Y-107188000D03*
D27*
X148971000Y-100203000D03*
X148971000Y-101981000D03*
D13*
X137287000Y-104140000D03*
X138303000Y-104140000D03*
D18*
X135890000Y-111633000D03*
X135890000Y-109601000D03*
D33*
X133350000Y-117729000D03*
X135382000Y-117729000D03*
D27*
X152273000Y-98171000D03*
X150495000Y-98171000D03*
X132842000Y-66929000D03*
X132842000Y-68707000D03*
D13*
X133604000Y-98044000D03*
X132588000Y-98044000D03*
X147828000Y-92583000D03*
X148844000Y-92583000D03*
D27*
X154178000Y-67056000D03*
X154178000Y-68834000D03*
D13*
X133350000Y-69977000D03*
X132334000Y-69977000D03*
D33*
X138176000Y-111633000D03*
X138176000Y-109601000D03*
D34*
X135697000Y-113254000D03*
X134747000Y-113254000D03*
X133797000Y-113254000D03*
X135697000Y-115854000D03*
X133797000Y-115854000D03*
D14*
X150241000Y-96642000D03*
X150241000Y-92842000D03*
X140970000Y-92080000D03*
X140970000Y-95880000D03*
M02*
