M48
; DRILL file {KiCad 5.1.0-rc2-unknown-036be7d~80~ubuntu16.04.1} date 14.07.2020 (вт) 15:33:45 EEST
; FORMAT={-:-/ absolute / inch / decimal}
; #@! TF.CreationDate,2020-07-14T15:33:45+03:00*
; #@! TF.GenerationSoftware,Kicad,Pcbnew,5.1.0-rc2-unknown-036be7d~80~ubuntu16.04.1
; #@! TF.FileFunction,Plated,1,2,PTH
FMAT,2
INCH
T1C0.0118
T2C0.0157
T3C0.0236
T4C0.0354
T5C0.0394
T6C0.0472
%
G90
G05
T1
X5.5441Y-2.9324
X5.5441Y-2.9915
X5.5736Y-2.9029
X5.5736Y-3.021
X5.6327Y-2.9029
X5.6327Y-3.021
X5.6622Y-2.9324
X5.6622Y-2.9915
T2
X5.19Y-3.4
X5.204Y-3.6107
X5.21Y-2.785
X5.2325Y-3.21
X5.2325Y-3.25
X5.2348Y-3.1697
X5.235Y-3.0249
X5.2374Y-3.6605
X5.24Y-3.07
X5.25Y-3.34
X5.25Y-3.11
X5.255Y-4.51
X5.261Y-2.635
X5.2661Y-3.4915
X5.29Y-3.565
X5.29Y-4.55
X5.3Y-3.745
X5.305Y-4.51
X5.32Y-4.345
X5.3312Y-3.9912
X5.345Y-4.51
X5.35Y-2.635
X5.35Y-3.115
X5.35Y-3.17
X5.35Y-3.25
X5.355Y-3.85
X5.355Y-4.345
X5.359Y-2.855
X5.36Y-2.75
X5.36Y-3.52
X5.3604Y-2.8154
X5.365Y-3.47
X5.37Y-4.04
X5.375Y-3.425
X5.39Y-4.3
X5.395Y-3.182
X5.395Y-3.5
X5.4Y-2.755
X5.405Y-4.1225
X5.41Y-3.4
X5.41Y-3.455
X5.43Y-3.965
X5.44Y-2.7696
X5.44Y-2.8338
X5.445Y-3.43
X5.455Y-3.21
X5.455Y-3.25
X5.46Y-3.29
X5.463Y-3.3277
X5.464Y-4.2612
X5.4721Y-4.1528
X5.525Y-3.835
X5.545Y-3.415
X5.5504Y-4.3028
X5.57Y-3.73
X5.58Y-3.66
X5.585Y-4.285
X5.61Y-4.105
X5.615Y-3.505
X5.6185Y-4.37
X5.645Y-3.47
X5.645Y-3.9825
X5.655Y-3.62
X5.6565Y-4.37
X5.6787Y-4.0124
X5.68Y-3.895
X5.685Y-3.83
X5.69Y-4.215
X5.69Y-4.255
X5.7163Y-4.0124
X5.72Y-3.895
X5.73Y-4.215
X5.75Y-3.63
X5.75Y-3.9825
X5.76Y-3.475
X5.785Y-3.73
X5.785Y-3.815
X5.8Y-4.365
X5.81Y-3.915
X5.82Y-3.68
X5.8563Y-4.2172
X5.86Y-4.3
X5.885Y-3.445
X5.9025Y-4.295
X5.9025Y-4.3725
X5.905Y-3.5071
X5.91Y-3.77
X5.925Y-3.475
X5.935Y-4.01
X5.935Y-4.06
X5.94Y-4.115
X5.94Y-4.185
X5.945Y-3.585
X5.95Y-2.635
X5.95Y-3.295
X5.95Y-3.3525
X5.965Y-3.645
X5.98Y-3.585
X5.985Y-4.115
X5.985Y-4.185
X6.015Y-3.585
X6.025Y-4.34
X6.03Y-3.475
X6.03Y-4.115
X6.03Y-4.185
X6.03Y-4.225
X6.035Y-3.55
X6.0442Y-4.4225
X6.0996Y-2.8148
T3
X5.38Y-4.585
X5.4Y-4.445
X5.425Y-2.635
X5.425Y-4.585
X5.5Y-2.635
X5.5Y-2.925
X5.5Y-2.975
X5.525Y-2.85
X5.53Y-4.615
X5.575Y-2.635
X5.575Y-2.85
X5.575Y-4.57
X5.625Y-2.85
X5.625Y-3.1
X5.65Y-2.635
X5.65Y-4.615
X5.675Y-2.85
X5.7Y-3.1
X5.7Y-3.15
X5.7Y-3.2
X5.7Y-3.25
X5.7Y-3.3
X5.7Y-3.35
X5.7Y-3.4
X5.725Y-2.635
X5.725Y-2.85
X5.765Y-2.685
X5.77Y-4.615
X5.775Y-2.95
X5.775Y-3.0
X5.775Y-3.05
X5.775Y-3.1
X5.775Y-3.15
X5.775Y-3.2
X5.775Y-3.25
X5.775Y-3.3
X5.775Y-3.35
X5.775Y-3.4
X5.8Y-2.635
X5.875Y-2.635
X5.88Y-4.655
X5.89Y-3.895
X5.9Y-2.95
X5.9Y-3.0
X5.9Y-3.05
X5.9Y-3.1
X5.9Y-3.15
X5.9Y-3.2
X5.9Y-3.25
X5.9Y-3.3
X5.9Y-3.35
X5.9Y-3.4
X5.95Y-4.515
X5.98Y-4.655
X6.08Y-4.655
T4
X5.9195Y-4.5758
X5.9994Y-4.5757
T5
X6.15Y-2.65
X6.15Y-2.75
X6.15Y-2.85
X6.15Y-2.95
X6.15Y-3.05
X6.15Y-3.15
X6.15Y-3.25
X6.15Y-3.35
X6.15Y-3.45
X6.15Y-3.55
X6.15Y-3.65
X6.15Y-3.75
X6.15Y-3.85
X6.15Y-3.95
X6.15Y-4.05
X6.15Y-4.15
X6.15Y-4.25
X6.15Y-4.35
X6.15Y-4.45
X6.15Y-4.55
X6.15Y-4.65
X5.15Y-2.65
X5.15Y-2.75
X5.15Y-2.85
X5.15Y-2.95
X5.15Y-3.05
X5.15Y-3.15
X5.15Y-3.25
X5.15Y-3.35
X5.15Y-3.45
X5.15Y-3.55
X5.15Y-3.65
X5.15Y-3.75
X5.15Y-3.85
X5.15Y-3.95
X5.15Y-4.05
X5.15Y-4.15
X5.15Y-4.25
X5.15Y-4.35
X5.15Y-4.45
X5.15Y-4.55
X5.15Y-4.65
T6
X5.6031Y-2.962
T3
G00X5.5083Y-4.4164
M15
G01X5.5083Y-4.44
M16
G05
G00X5.5083Y-4.553
M15
G01X5.5083Y-4.5767
M16
G05
G00X5.7917Y-4.4164
M15
G01X5.7917Y-4.44
M16
G05
G00X5.7917Y-4.553
M15
G01X5.7917Y-4.5767
M16
G05
T0
M30
